<?xml version="1.0" encoding="UTF-8"?>
<!DOCTYPE svg PUBLIC "-//W3C//DTD SVG 1.1//EN" "http://www.w3.org/Graphics/SVG/1.1/DTD/svg11.dtd">
<!-- Creator: CorelDRAW X7 -->
<svg xmlns="http://www.w3.org/2000/svg" xml:space="preserve" width="75.47mm" height="77.68mm" version="1.1" style="shape-rendering:geometricPrecision; text-rendering:geometricPrecision; image-rendering:optimizeQuality; fill-rule:evenodd; clip-rule:evenodd"
viewBox="0 0 795 819"
 xmlns:xlink="http://www.w3.org/1999/xlink">
 <defs>
  <style type="text/css">
   <![CDATA[
    .fil0 {fill:#2B2A29}
   ]]>
  </style>
 </defs>
 <g id="Layer_x0020_1">
  <metadata id="CorelCorpID_0Corel-Layer"/>
  <path id="path3085" class="fil0" d="M554 354c25,-33 49,-66 74,-99 0,0 -80,107 0,0l1 -2 2 -3 3 1 157 30 -110 129 -121 -44 0 0 -6 -2 0 0 0 -10zm-304 -161l0 -2 2 3 -2 -1zm144 58l-4 -5 11 4 86 -108 -77 -141c-1,-1 -1,-1 -2,-1 0,0 -1,1 -1,1l-87 140 -157 -66c0,0 0,0 0,0l0 0 0 0 0 0 -1 0 0 0 0 0 0 0c0,0 0,0 0,1 0,0 -1,0 -1,1l0 0 18 174 1 0c1,0 1,0 2,1l72 91 -2 -64 -3 -87 1 1 0 -2 -83 -111 153 64 70 102 11 4 -3 3 -4 -2zm11 -2l152 -63 0 3 -1 2 0 -2 -154 64 3 -4zm278 165l112 133 0 0 0 0 0 0 0 1 0 0 0 0 0 0 0 0 0 0 0 0 0 0 0 0 0 0c0,0 1,0 0,1 0,0 0,1 -1,1l-162 19 0 -1c0,0 0,-1 -1,-1l0 0 0 0 158 -19 -137 -56 1 0 -2 -2 3 -1 -91 -119 -6 -2 94 122 3 -1 -91 -119 120 44zm-52 -164l14 -164 -88 103 0 -3 -152 63 85 -107 156 -61 0 0c1,0 1,0 1,0 0,0 0,0 0,0l0 0 0 0 0 0 0 0 0 0 0 0 0 0 1 0 0 0 0 0 0 0 0 0 0 0 0 0 0 0 0 0 0 0 0 0 0 0 0 0 0 0 0 0 0 0c0,0 0,0 0,0 0,0 0,1 0,1l-14 164 -3 4zm-1 319l-126 -36 -8 2 -3 4 -8 120 148 79 -3 -169zm-326 -32l-115 23 -28 180 158 -83 -1 -107 -8 -11 -6 -2zm-124 -283l-156 28 114 118 114 -46 2 -2 0 1 0 1 -2 0 2 -2 0 -4 -74 -94zm218 558l2 -141 1 2 89 -129 -7 116c-1,0 0,1 0,1l1 0 -83 157c0,0 -1,0 -1,1 0,0 0,0 -1,0l0 0 0 0 0 0 0 0 0 0 0 0 0 0 0 0 0 0 0 0 0 0 0 0 0 0 0 0 0 0 0 0 0 0 0 0 0 0 0 0 0 0c0,-1 -1,-1 -1,-1l-82 -156 2 -1 80 151zm-212 -252l-3 0 0 0c0,0 -1,0 -1,0l-181 -28c0,0 0,0 -1,-1 0,0 0,-1 0,-2l136 -128 1 1c0,1 1,1 1,0l0 0 -132 125 146 -46 0 1 1 0 -3 3 8 2 141 48 -111 23c-1,0 -1,0 -2,1l0 1zm-34 -79l2 0 -1 1 -1 0 0 -1z"/>
  <path class="fil0" d="M547 363l2 -159 -141 59 0 0 1 70 106 0 0 40 32 -10zm-138 17l0 27 84 -27 -84 0zm-11 -118l-134 -55 2 70 3 76 26 11 0 -31 104 0 -1 -63 0 0 0 -7 0 0 0 -1zm-62 118l23 10 41 16 0 -26 -64 0zm-72 -19l-92 117 145 49 26 -36 -48 0 0 -47 82 0 21 -29 -87 -35 -16 0 0 -6 -31 -13zm60 172l81 120 84 -123 -30 -39 -105 0 -30 42zm99 -89l-18 -23 -17 23 35 0zm73 80l142 -39 -87 -113 -119 37 0 0 -19 7 21 28 81 0 0 47 -44 0 25 33z"/>
 </g>
</svg>
